<svg width="153" height="123" viewBox="0 0 153 123" xmlns="http://www.w3.org/2000/svg" xmlns:xlink="http://www.w3.org/1999/xlink"><svg width="16" height="16" viewBox="0 0 16 16" y="107"><path d="M14.3 12l.7-.7L11.7 8 15 4.7l-.7-.7-4 4 4 4z" fill="#22C" fill-rule="evenodd"/></svg><svg width="16" height="16" viewBox="0 0 16 16" x="30" y="107"><path d="M14.3 12l.7-.7L11.7 8 15 4.7l-.7-.7-4 4 4 4z" fill="#F00" fill-rule="evenodd"/></svg><svg width="23" height="39" viewBox="0 0 23 39" x="53"><defs><filter x="-50%" y="-50%" width="200%" height="200%" filterUnits="objectBoundingBox" id="a"><feOffset dy="1" in="SourceAlpha" result="shadowOffsetOuter1"/><feGaussianBlur stdDeviation="1.5" in="shadowOffsetOuter1" result="shadowBlurOuter1"/><feColorMatrix values="0 0 0 0 0 0 0 0 0 0 0 0 0 0 0 0 0 0 0.7 0" in="shadowBlurOuter1" result="shadowMatrixOuter1"/><feOffset dy="1" in="SourceAlpha" result="shadowOffsetOuter2"/><feGaussianBlur in="shadowOffsetOuter2" result="shadowBlurOuter2"/><feColorMatrix values="0 0 0 0 0 0 0 0 0 0 0 0 0 0 0 0 0 0 0.7 0" in="shadowBlurOuter2" result="shadowMatrixOuter2"/><feMerge><feMergeNode in="shadowMatrixOuter1"/><feMergeNode in="shadowMatrixOuter2"/><feMergeNode in="SourceGraphic"/></feMerge></filter></defs><path d="M2.46 34.646l15.968-16.218L2.46 2.203 3.742 1 21 18.43 3.742 35.924l-1.282-1.28z" fill="#fff" filter="url(#a)"/></svg><svg width="23" height="39" viewBox="0 0 23 39"><defs><filter x="-50%" y="-50%" width="200%" height="200%" filterUnits="objectBoundingBox" id="b"><feOffset dy="1" in="SourceAlpha" result="shadowOffsetOuter1"/><feGaussianBlur stdDeviation="1.5" in="shadowOffsetOuter1" result="shadowBlurOuter1"/><feColorMatrix values="0 0 0 0 0 0 0 0 0 0 0 0 0 0 0 0 0 0 0.7 0" in="shadowBlurOuter1" result="shadowMatrixOuter1"/><feOffset dy="1" in="SourceAlpha" result="shadowOffsetOuter2"/><feGaussianBlur in="shadowOffsetOuter2" result="shadowBlurOuter2"/><feColorMatrix values="0 0 0 0 0 0 0 0 0 0 0 0 0 0 0 0 0 0 0.7 0" in="shadowBlurOuter2" result="shadowMatrixOuter2"/><feMerge><feMergeNode in="shadowMatrixOuter1"/><feMergeNode in="shadowMatrixOuter2"/><feMergeNode in="SourceGraphic"/></feMerge></filter></defs><path d="M19.258 35.925l1.282-1.28L4.572 18.43 20.54 2.203 19.258 1 2 18.43l17.258 17.495z" fill="#fff" filter="url(#b)"/></svg><svg width="36" height="36" viewBox="0 0 36 36" x="13" y="39"><path d="M10.1 0l18 18-18 18L9 34.898 25.9 18 9 1.1 10.1 0z" fill="#fff"/></svg><svg width="8" height="14" viewBox="0 0 8 14" x="76" y="36"><path d="M6.91 0L0 7l6.91 7L8 12.898 2.178 7 8 1.1 6.91 0z"/></svg><svg width="8" height="8" viewBox="0 0 8 8" x="95" y="75"><path d="M7.194 2L3.996 5.195.8 2l-.8.8 3.996 3.994L7.99 2.8z"/></svg><svg width="11" height="6" viewBox="0 0 11 6" x="76" y="56"><path d="M10.08 0L5.5 4.36.91 0 0 .86l5.5 5.25L11 .86z"/></svg><svg width="11" height="6" viewBox="0 0 11 6" x="76" y="50"><path d="M10.08 0L5.5 4.36.91 0 0 .86l5.5 5.25L11 .86z"/></svg><svg width="27" height="23" viewBox="0 0 27 23" x="52" y="75"><path fill-rule="evenodd" d="M17.5 21H2V6h5.35l2.594-4h7.112l2.595 4H25v15h-1.5l-4.715-4.715C19.55 15.22 20 13.912 20 12.5 20 8.91 17.09 6 13.5 6S7 8.91 7 12.5 9.91 19 13.5 19c1.412 0 2.72-.45 3.785-1.215l2.465 2.465L22.5 23H27V4h-6.333L18 0H9L6.333 4H0v19h19.5l-2-2zm-4-4c2.485 0 4.5-2.015 4.5-4.5S15.985 8 13.5 8 9 10.015 9 12.5s2.015 4.5 4.5 4.5z"/></svg><svg width="16" height="16" viewBox="0 0 16 16" x="62" y="107"><path d="M12.6 15H1.505C.667 15 0 14.326 0 13.494V4.996c0-.55.428-1.118.956-1.27L3.5 3C6 1 5 1 8 1s2 0 4.5 2l2.544.727c.527.15.956.72.956 1.27v8.497c0 .572-.317 1.067-.784 1.322l-3.412-3.412c.44-.695.696-1.52.696-2.404 0-2.485-2.015-4.5-4.5-4.5S3.5 6.515 3.5 9s2.015 4.5 4.5 4.5c.884 0 1.71-.255 2.404-.696L12.6 15zM8 11.5c1.38 0 2.5-1.12 2.5-2.5S9.38 6.5 8 6.5 5.5 7.62 5.5 9s1.12 2.5 2.5 2.5z"/></svg><svg width="19" height="18" viewBox="0 0 19 18" x="108" y="48"><path fill-rule="evenodd" clip-rule="evenodd" d="M19 13.998l-2-2v-6c0-.55-.447-1-1-1h-2.134C12.524 3.37 12.268 2 11 2H8C6.734 2 6.48 3.37 5.135 5H3c-.55 0-1 .45-1 1v7c0 .553.448 1 1 1h2l2 2H2.003c-1.104 0-2-.897-2-2V5c0-1.103.896-2 2-2h2.25l.75-1c1.046-1.413 1.57-2 3-2h3c1.43 0 1.953.587 3 2l.75 1H17c1.104 0 2 .897 2 2v9zm-9.5-9C11.986 5 14 7.015 14 9.5c0 .88-.263 1.694-.698 2.387l4.405 4.405-1.414 1.414-4.405-4.404c-.693.436-1.508.698-2.387.698-2.483 0-4.497-2.015-4.497-4.5 0-2.484 2.014-4.5 4.5-4.5zm0 7c1.382 0 2.5-1.12 2.5-2.5s-1.118-2.5-2.5-2.5C8.12 7 7 8.12 7 9.5S8.12 12 9.5 12z"/></svg><svg width="14" height="14" viewBox="0 0 14 14" x="108" y="107"><path d="M14 .7l-.7-.7L7 6.3.7 0 0 .7 6.3 7 0 13.3l.7.7L7 7.7l6.3 6.3.7-.7L7.7 7z"/></svg><svg width="22" height="22" viewBox="0 0 22 22" x="129" y="24"><path d="M22 1.1L20.9 0 11 9.898 1.1 0 0 1.1 9.9 11 0 20.898 1.1 22l9.9-9.9 9.9 9.9 1.1-1.102L12.1 11 22 1.1z"/></svg><svg width="14" height="14" viewBox="0 0 14 14" x="94" y="107"><path d="M7 14c3.866 0 7-3.134 7-7s-3.134-7-7-7-7 3.134-7 7 3.134 7 7 7zm0-1c3.314 0 6-2.686 6-6s-2.686-6-6-6-6 2.686-6 6 2.686 6 6 6zM6 9v2h2V9H6zm0-6v5h2V3H6z" fill-rule="evenodd"/></svg><svg width="14" height="18" viewBox="0 0 14 18" x="108" y="66"><path d="M7.17 14.02s.976 0 1.464 1.143l1.1 2.058c.227.49.82.713 1.315.48.497-.23.71-.82.477-1.314l-1.02-1.89C10 13.43 10 13.18 10 11.846V10.55s0-1.304 1.05-2.19l1.76-1.76c.384-.384.39-1.02 0-1.408-.39-.39-1.02-.388-1.41 0L9.338 7.258c-.754.763-1.88.763-1.88.763h-.914s-1.126 0-1.88-.762L2.6 5.193c-.39-.39-1.018-.393-1.41 0-.39.388-.383 1.023 0 1.408l1.76 1.76C4 9.247 4 10.55 4 10.55v1.294c0 1.335 0 1.586-.508 2.652l-1.02 1.89c-.23.495-.02 1.083.48 1.315.495.233 1.087.01 1.315-.48l1.1-2.056C5.853 14.02 6.83 14.02 6.83 14.02h.34zM4 4.02c0 1.658 1.343 3 3 3s3-1.342 3-3-1.343-3-3-3-3 1.344-3 3z"/></svg><svg width="20" height="27" viewBox="0 0 20 27" x="32" y="75"><path d="M9.805 20.08s1.465 0 2.196 1.714l1.65 3.087c.34.736 1.23 1.068 1.974.72.748-.35 1.065-1.23.718-1.974l-1.528-2.833c-.762-1.6-.762-1.976-.762-3.978v-1.94s0-1.956 1.575-3.285l2.64-2.64c.576-.577.584-1.53 0-2.113-.586-.587-1.528-.582-2.112.002l-3.097 3.095c-1.13 1.144-2.82 1.144-2.82 1.144H8.864s-1.69 0-2.82-1.145L2.947 6.84c-.584-.585-1.526-.59-2.113-.003C.25 7.42.26 8.373.836 8.95l2.64 2.64c1.574 1.328 1.574 3.284 1.574 3.284v1.94c0 2.002 0 2.38-.762 3.978l-1.53 2.833c-.346.744-.03 1.625.72 1.975.742.347 1.63.015 1.973-.72l1.65-3.086c.73-1.713 2.196-1.713 2.196-1.713h.51zm-4.755-15c0 2.486 2.015 4.5 4.5 4.5s4.5-2.014 4.5-4.5-2.015-4.5-4.5-4.5-4.5 2.016-4.5 4.5z"/></svg><svg width="14" height="16" viewBox="0 0 14 16" x="139" y="90"><path d="M7.003 16C.49 13.36.037 8.518.005 4.005L0 2C6.07 2 6.052.802 7 0c1.02.802 1.024 2 7 2v2.005C13.964 8.517 13.51 13.36 7 16zM3.3 8.1l3.432 3.5L10.8 6.1l-.88-1.4-3.336 4.608L4.03 6.643 3.3 8.1z"/></svg><svg width="21" height="24" viewBox="0 0 21 24" x="108" y="24"><path d="M10.505 24C.735 20.04.055 12.776.01 6.008L0 3c9.107 0 9.082-1.796 10.5-3 1.534 1.204 1.54 3 10.5 3v3.008c-.05 6.77-.73 14.033-10.494 17.992zm0-2.2c-7.31-3.217-8.46-8.82-8.498-14.32L2 5c5.372 0 7.75-1.422 8.5-2.4.74.978 3.245 2.4 8.5 2.4v2.48c-.04 5.5-1.19 11.103-8.496 14.32zM6.1 9.9L5 11.775 10.177 17l6.136-8.267L14.983 7l-5.03 6.878L6.1 9.9z" fill-rule="evenodd"/></svg><svg width="14" height="16" viewBox="0 0 14 16" x="16" y="107"><path d="M7 0c-.946.802-.93 2-7 2l.006 2.005C.036 8.517.49 13.36 7.004 16c6.51-2.64 6.963-7.482 6.997-11.995V2c-.605 0-1.15-.012-1.64-.035L8.667 6H12l-7 6 2.5-5H5l3.814-5.626C7.8.964 7.544.426 7 0z"/></svg><svg width="21" height="24" viewBox="0 0 21 24" x="108"><path d="M10.505 24C.735 20.04.055 12.776.01 6.008L0 3c9.107 0 9.082-1.796 10.5-3 1.534 1.204 1.54 3 10.5 3v3.008c-.05 6.77-.73 14.033-10.494 17.992zm6.24-19.096L13 9h5L7.5 18l3.75-7.5H7.5l4.568-6.74c-.79-.385-1.297-.802-1.568-1.16C9.75 3.578 7.372 5 2 5l.007 2.48c.038 5.5 1.188 11.103 8.497 14.32C17.81 18.583 18.96 12.98 19 7.48V5c-.817 0-1.567-.034-2.254-.096z"/></svg><svg width="32" height="32" viewBox="0 0 32 32" y="75"><path d="M9.7 9l-.7.7 6.3 6.3L9 22.3l.7.7 6.3-6.3 6.3 6.3.7-.7-6.3-6.3L23 9.7l-.7-.7-6.3 6.3" fill="#000" fill-rule="evenodd"/></svg><svg width="10" height="10" viewBox="0 0 10 10" x="76" y="62"><path d="M10 .7L9.3 0 5 4.3.7 0 0 .7 4.3 5 0 9.3l.7.7L5 5.7 9.3 10l.7-.7L5.7 5 10 .7z"/></svg><svg width="24" height="24" viewBox="0 0 24 24" x="129"><path d="M11 0h2v11h11v2H13v11h-2V13H0v-2h11V0"/></svg><svg width="9" height="16" viewBox="0 0 9 16" x="120" y="84"><path d="M.764-.002l-.65.667L7.274 8l-7.16 7.335.65.667L8.575 8z"/></svg><svg width="16" height="16" viewBox="0 0 16 16" x="79" y="75"><path fill-rule="evenodd" clip-rule="evenodd" d="M1 13v2h14v-2H1zm13-7h-3V1H5v5.03L2 6l6 6 6-6z"/></svg><svg width="16" height="4" viewBox="0 0 16 4" x="108" y="102"><path d="M14 4c1.105 0 2-.895 2-2s-.895-2-2-2-2 .895-2 2 .895 2 2 2zM8 4c1.105 0 2-.895 2-2s-.895-2-2-2-2 .895-2 2 .895 2 2 2zM2 4c1.105 0 2-.895 2-2s-.895-2-2-2-2 .895-2 2 .895 2 2 2z"/></svg><svg width="22" height="22" viewBox="0 0 22 22" x="129" y="46"><path d="M22 1.1L20.9 0 11 9.898 1.1 0 0 1.1 9.9 11 0 20.898 1.1 22l9.9-9.9 9.9 9.9 1.1-1.102L12.1 11 22 1.1z" fill="#fff"/></svg><svg width="30" height="39" viewBox="0 0 30 39" x="23"><path fill="#FF972B" d="M23.57 4C18.84 4 15 2.392 15 0c0 2.392-3.837 4-8.572 4H0v17.67C0 30.33 15 39 15 39s15-8.67 15-17.33V4h-6.43zM17 31h-4v-4h4v4zm0-7h-4V10h4v14z"/></svg><svg width="19" height="35" viewBox="0 0 19 35" x="89" y="35"><path fill="#fff" d="M17.758 34.925l1.282-1.28L3.072 17.43 19.04 1.203 17.758 0 .5 17.43l17.258 17.495z"/></svg><svg width="19" height="35" viewBox="0 0 19 35" x="89"><path fill="#fff" d="M1.242 34.925l-1.282-1.28L15.928 17.43-.04 1.203 1.242 0 18.5 17.43 1.242 34.924z"/></svg><svg width="22" height="22" viewBox="0 0 22 22" x="129" y="68"><path fill="#fff" d="M19.4 1.5L1.5 19.4V12H0v10h10v-1.5H2.6L20.5 2.6V10H22V0H12v1.5h7.4z"/></svg><svg width="13" height="36" viewBox="0 0 13 36" x="76"><path d="M.6 17.996l.008-.004L10.6.684l1.742.5L2.634 18l9.708 16.816-1.74.5L.607 18.008.6 18.004.602 18 .6 17.996z" fill="#fff"/></svg><svg width="13" height="36" viewBox="0 0 13 36" y="39"><path d="M12.432 17.992l-.008-.004L2.43.68l-1.74.5 9.708 16.816L.69 34.812l1.74.5 9.994-17.308.008-.004-.002-.004.002-.004z" fill="#fff"/></svg><svg width="13" height="36" viewBox="0 0 13 36" x="62" y="39"><path d="M.6 17.996l.008-.004L10.6.684l1.742.5L2.634 18l9.708 16.816-1.74.5L.607 18.008.6 18.004.602 18 .6 17.996z" fill-rule="evenodd"/></svg><svg width="13" height="36" viewBox="0 0 13 36" x="49" y="39"><path d="M12.432 17.992l-.008-.004L2.43.68l-1.74.5 9.708 16.816L.69 34.812l1.74.5 9.994-17.308.008-.004-.002-.004.002-.004z" fill-rule="evenodd"/></svg><svg width="16" height="16" viewBox="0 0 320 320" x="46" y="107"><path d="M219 258H41V77h79l29.8-37.9h-129C9.3 39.1 0 48.4 0 59.9v217c0 11.5 9.3 20.8 20.8 20.8h218c11.5 0 20.8-9.3 20.8-20.8v-75l-41 29.8v27m-99-142c-34.7 55-38 115-38 115 11.3-17.4 34-51 61-67.9 49.6-30.9 78-24.7 78-24.7v55l106-95-105-98v55s-58-8-102 60.8"/></svg><svg width="12" height="18" viewBox="0 0 12 18" x="108" y="84"><path d="M10 8v6H2V8H0v8h12V8h-2zm-5 4h2V6h3L6 0 2 6h3v6z"/></svg><svg width="10" height="17" viewBox="0 0 10 17" x="129" y="90"><path fill="#FFF" fill-rule="evenodd" clip-rule="evenodd" d="M1.43 0L0 1.416 7.144 8.5 0 15.584 1.43 17 10 8.5z"/></svg><svg width="16" height="16" viewBox="0 0 16 16" x="78" y="107"><path d="M5 0v2h9v12H5v2h11V0zM0 6h6V3l6 5-6 5v-3H0V6z"/></svg></svg>